<svg width="96" height="96" viewBox="0 0 96 96" fill="none" xmlns="http://www.w3.org/2000/svg">
<path d="M8 12H32C36.2435 12 40.3131 13.6857 43.3137 16.6863C46.3143 19.6869 48 23.7565 48 28V84C48 80.8174 46.7357 77.7652 44.4853 75.5147C42.2348 73.2643 39.1826 72 36 72H8V12Z" stroke="#2ECC71" stroke-width="8" stroke-linecap="round" stroke-linejoin="round"/>
<path d="M88 12H64C59.7565 12 55.6869 13.6857 52.6863 16.6863C49.6857 19.6869 48 23.7565 48 28V84C48 80.8174 49.2643 77.7652 51.5147 75.5147C53.7652 73.2643 56.8174 72 60 72H88V12Z" stroke="#2ECC71" stroke-width="8" stroke-linecap="round" stroke-linejoin="round"/>
</svg>
